<svg width="360" height="210" xmlns="http://www.w3.org/2000/svg">
<style>
svg {
  font-family: -apple-system, BlinkMacSystemFont, Segoe UI, Helvetica, Arial, sans-serif, Apple Color Emoji, Segoe UI Emoji;
  font-size: 14px;
  line-height: 21px;
}

#background {
  width: calc(100% - 10px);
  height: calc(100% - 10px);
  fill: #00000000;
  stroke: #8B8B8B22;
  stroke-width: 1px;
  rx: 6px;
  ry: 6px;
}

foreignObject {
  width: calc(100% - 10px - 32px);
  height: calc(100% - 10px - 24px);
}

h2 {
  margin-top: 0;
  margin-bottom: 0.75em;
  line-height: 24px;
  font-size: 16px;
  font-weight: 600;
  color: #4894e0;
}

ul {
  list-style: none;
  padding-left: 0;
  margin-top: 0;
  margin-bottom: 0;
}

li {
  display: inline-flex;
  font-size: 12px;
  margin-right: 1ch;
  align-items: center;
  flex-wrap: nowrap;
  transform: translateX(-500%);
  animation: slideIn 2s ease-in-out forwards;
}

@keyframes slideIn {
  to {
    transform: translateX(0);
  }
}

div.ellipsis {
  height: 176px;
  overflow: hidden;
  text-overflow: ellipsis;
}

.octicon {
  fill: #8b8b8b;
  margin-right: 0.5ch;
  vertical-align: top;
}

.progress {
  display: flex;
  height: 8px;
  overflow: hidden;
  background-color: rgba(110, 118, 129, 0.4);
  border-radius: 6px;
  outline: 1px solid transparent;
  margin-bottom: 1em;
}

.progress-item {
  outline: 2px solid #393f47;
  border-collapse: collapse;
}

.lang {
  font-weight: 600;
  margin-right: 4px;
  color: #919191;
}

.percent {
  color: #8b949e;
}
</style>
<g>
<rect x="5" y="5" id="background" />
<g>
<foreignObject x="21" y="17" width="318" height="176">
<div xmlns="http://www.w3.org/1999/xhtml" class="ellipsis">

<h2>Languages Used (By File Size)</h2>

<div>
<span class="progress">
<span style="
  background-color: #3178c6; 
  width: 48.304%;
" class="progress-item"></span><span style="
  background-color: #555555; 
  width: 10.698%;
" class="progress-item"></span><span style="
  background-color: #3572A5; 
  width: 6.159%;
" class="progress-item"></span><span style="
  background-color: #00ADD8; 
  width: 5.681%;
" class="progress-item"></span><span style="
  background-color: #663399; 
  width: 3.488%;
" class="progress-item"></span><span style="
  background-color: #6E4C13; 
  width: 3.088%;
" class="progress-item"></span><span style="
  background-color: #89e051; 
  width: 3.072%;
" class="progress-item"></span><span style="
  background-color: #e34c26; 
  width: 3.069%;
" class="progress-item"></span><span style="
  background-color: #ff5a03; 
  width: 2.850%;
" class="progress-item"></span><span style="
  background-color: #f1e05a; 
  width: 2.828%;
" class="progress-item"></span><span style="
  background-color: #178600; 
  width: 2.347%;
" class="progress-item"></span><span style="
  background-color: #f34b7d; 
  width: 2.068%;
" class="progress-item"></span><span style="
  background-color: #427819; 
  width: 1.866%;
" class="progress-item"></span><span style="
  background-color: #4F5D95; 
  width: 1.617%;
" class="progress-item"></span><span style="
  background-color: #41b883; 
  width: 1.013%;
" class="progress-item"></span><span style="
  background-color: #DA5B0B; 
  width: 0.808%;
" class="progress-item"></span><span style="
  background-color: #f7523f; 
  width: 0.593%;
" class="progress-item"></span><span style="
  background-color: #e16737; 
  width: 0.220%;
" class="progress-item"></span><span style="
  background-color: #384d54; 
  width: 0.154%;
" class="progress-item"></span><span style="
  background-color: #012456; 
  width: 0.051%;
" class="progress-item"></span><span style="
  background-color: #fcb32c; 
  width: 0.017%;
" class="progress-item"></span><span style="
  background-color: #00A2FF; 
  width: 0.004%;
" class="progress-item"></span><span style="
  background-color: #701516; 
  width: 0.004%;
" class="progress-item"></span><span style="
  background-color: #5686a5; 
  width: 0.001%;
" class="progress-item"></span>
</span>
</div>

<ul>

<li style="animation-delay: 150ms;">
  <svg 
      xmlns="http://www.w3.org/2000/svg" 
      class="octicon"
      style="fill: #3178c6;" 
      viewBox="0 0 16 16" 
      version="1.1" 
      width="16" 
      height="16"
  ><path 
      fill-rule="evenodd" 
      d="M8 4a4 4 0 100 8 4 4 0 000-8z"
  ></path></svg>
  <span class="lang">TypeScript</span>
  <span class="percent">48.30%</span>
</li>
<li style="animation-delay: 300ms;">
  <svg 
      xmlns="http://www.w3.org/2000/svg" 
      class="octicon"
      style="fill: #555555;" 
      viewBox="0 0 16 16" 
      version="1.1" 
      width="16" 
      height="16"
  ><path 
      fill-rule="evenodd" 
      d="M8 4a4 4 0 100 8 4 4 0 000-8z"
  ></path></svg>
  <span class="lang">C</span>
  <span class="percent">10.70%</span>
</li>
<li style="animation-delay: 450ms;">
  <svg 
      xmlns="http://www.w3.org/2000/svg" 
      class="octicon"
      style="fill: #3572A5;" 
      viewBox="0 0 16 16" 
      version="1.1" 
      width="16" 
      height="16"
  ><path 
      fill-rule="evenodd" 
      d="M8 4a4 4 0 100 8 4 4 0 000-8z"
  ></path></svg>
  <span class="lang">Python</span>
  <span class="percent">6.16%</span>
</li>
<li style="animation-delay: 600ms;">
  <svg 
      xmlns="http://www.w3.org/2000/svg" 
      class="octicon"
      style="fill: #00ADD8;" 
      viewBox="0 0 16 16" 
      version="1.1" 
      width="16" 
      height="16"
  ><path 
      fill-rule="evenodd" 
      d="M8 4a4 4 0 100 8 4 4 0 000-8z"
  ></path></svg>
  <span class="lang">Go</span>
  <span class="percent">5.68%</span>
</li>
<li style="animation-delay: 750ms;">
  <svg 
      xmlns="http://www.w3.org/2000/svg" 
      class="octicon"
      style="fill: #663399;" 
      viewBox="0 0 16 16" 
      version="1.1" 
      width="16" 
      height="16"
  ><path 
      fill-rule="evenodd" 
      d="M8 4a4 4 0 100 8 4 4 0 000-8z"
  ></path></svg>
  <span class="lang">CSS</span>
  <span class="percent">3.49%</span>
</li>
<li style="animation-delay: 900ms;">
  <svg 
      xmlns="http://www.w3.org/2000/svg" 
      class="octicon"
      style="fill: #6E4C13;" 
      viewBox="0 0 16 16" 
      version="1.1" 
      width="16" 
      height="16"
  ><path 
      fill-rule="evenodd" 
      d="M8 4a4 4 0 100 8 4 4 0 000-8z"
  ></path></svg>
  <span class="lang">Assembly</span>
  <span class="percent">3.09%</span>
</li>
<li style="animation-delay: 1050ms;">
  <svg 
      xmlns="http://www.w3.org/2000/svg" 
      class="octicon"
      style="fill: #89e051;" 
      viewBox="0 0 16 16" 
      version="1.1" 
      width="16" 
      height="16"
  ><path 
      fill-rule="evenodd" 
      d="M8 4a4 4 0 100 8 4 4 0 000-8z"
  ></path></svg>
  <span class="lang">Shell</span>
  <span class="percent">3.07%</span>
</li>
<li style="animation-delay: 1200ms;">
  <svg 
      xmlns="http://www.w3.org/2000/svg" 
      class="octicon"
      style="fill: #e34c26;" 
      viewBox="0 0 16 16" 
      version="1.1" 
      width="16" 
      height="16"
  ><path 
      fill-rule="evenodd" 
      d="M8 4a4 4 0 100 8 4 4 0 000-8z"
  ></path></svg>
  <span class="lang">HTML</span>
  <span class="percent">3.07%</span>
</li>
<li style="animation-delay: 1350ms;">
  <svg 
      xmlns="http://www.w3.org/2000/svg" 
      class="octicon"
      style="fill: #ff5a03;" 
      viewBox="0 0 16 16" 
      version="1.1" 
      width="16" 
      height="16"
  ><path 
      fill-rule="evenodd" 
      d="M8 4a4 4 0 100 8 4 4 0 000-8z"
  ></path></svg>
  <span class="lang">Astro</span>
  <span class="percent">2.85%</span>
</li>
<li style="animation-delay: 1500ms;">
  <svg 
      xmlns="http://www.w3.org/2000/svg" 
      class="octicon"
      style="fill: #f1e05a;" 
      viewBox="0 0 16 16" 
      version="1.1" 
      width="16" 
      height="16"
  ><path 
      fill-rule="evenodd" 
      d="M8 4a4 4 0 100 8 4 4 0 000-8z"
  ></path></svg>
  <span class="lang">JavaScript</span>
  <span class="percent">2.83%</span>
</li>
<li style="animation-delay: 1650ms;">
  <svg 
      xmlns="http://www.w3.org/2000/svg" 
      class="octicon"
      style="fill: #178600;" 
      viewBox="0 0 16 16" 
      version="1.1" 
      width="16" 
      height="16"
  ><path 
      fill-rule="evenodd" 
      d="M8 4a4 4 0 100 8 4 4 0 000-8z"
  ></path></svg>
  <span class="lang">C#</span>
  <span class="percent">2.35%</span>
</li>
<li style="animation-delay: 1800ms;">
  <svg 
      xmlns="http://www.w3.org/2000/svg" 
      class="octicon"
      style="fill: #f34b7d;" 
      viewBox="0 0 16 16" 
      version="1.1" 
      width="16" 
      height="16"
  ><path 
      fill-rule="evenodd" 
      d="M8 4a4 4 0 100 8 4 4 0 000-8z"
  ></path></svg>
  <span class="lang">C++</span>
  <span class="percent">2.07%</span>
</li>
<li style="animation-delay: 1950ms;">
  <svg 
      xmlns="http://www.w3.org/2000/svg" 
      class="octicon"
      style="fill: #427819;" 
      viewBox="0 0 16 16" 
      version="1.1" 
      width="16" 
      height="16"
  ><path 
      fill-rule="evenodd" 
      d="M8 4a4 4 0 100 8 4 4 0 000-8z"
  ></path></svg>
  <span class="lang">Makefile</span>
  <span class="percent">1.87%</span>
</li>
<li style="animation-delay: 2100ms;">
  <svg 
      xmlns="http://www.w3.org/2000/svg" 
      class="octicon"
      style="fill: #4F5D95;" 
      viewBox="0 0 16 16" 
      version="1.1" 
      width="16" 
      height="16"
  ><path 
      fill-rule="evenodd" 
      d="M8 4a4 4 0 100 8 4 4 0 000-8z"
  ></path></svg>
  <span class="lang">PHP</span>
  <span class="percent">1.62%</span>
</li>
<li style="animation-delay: 2250ms;">
  <svg 
      xmlns="http://www.w3.org/2000/svg" 
      class="octicon"
      style="fill: #41b883;" 
      viewBox="0 0 16 16" 
      version="1.1" 
      width="16" 
      height="16"
  ><path 
      fill-rule="evenodd" 
      d="M8 4a4 4 0 100 8 4 4 0 000-8z"
  ></path></svg>
  <span class="lang">Vue</span>
  <span class="percent">1.01%</span>
</li>
<li style="animation-delay: 2400ms;">
  <svg 
      xmlns="http://www.w3.org/2000/svg" 
      class="octicon"
      style="fill: #DA5B0B;" 
      viewBox="0 0 16 16" 
      version="1.1" 
      width="16" 
      height="16"
  ><path 
      fill-rule="evenodd" 
      d="M8 4a4 4 0 100 8 4 4 0 000-8z"
  ></path></svg>
  <span class="lang">Jupyter Notebook</span>
  <span class="percent">0.81%</span>
</li>
<li style="animation-delay: 2550ms;">
  <svg 
      xmlns="http://www.w3.org/2000/svg" 
      class="octicon"
      style="fill: #f7523f;" 
      viewBox="0 0 16 16" 
      version="1.1" 
      width="16" 
      height="16"
  ><path 
      fill-rule="evenodd" 
      d="M8 4a4 4 0 100 8 4 4 0 000-8z"
  ></path></svg>
  <span class="lang">Blade</span>
  <span class="percent">0.59%</span>
</li>
<li style="animation-delay: 2700ms;">
  <svg 
      xmlns="http://www.w3.org/2000/svg" 
      class="octicon"
      style="fill: #e16737;" 
      viewBox="0 0 16 16" 
      version="1.1" 
      width="16" 
      height="16"
  ><path 
      fill-rule="evenodd" 
      d="M8 4a4 4 0 100 8 4 4 0 000-8z"
  ></path></svg>
  <span class="lang">MATLAB</span>
  <span class="percent">0.22%</span>
</li>
<li style="animation-delay: 2850ms;">
  <svg 
      xmlns="http://www.w3.org/2000/svg" 
      class="octicon"
      style="fill: #384d54;" 
      viewBox="0 0 16 16" 
      version="1.1" 
      width="16" 
      height="16"
  ><path 
      fill-rule="evenodd" 
      d="M8 4a4 4 0 100 8 4 4 0 000-8z"
  ></path></svg>
  <span class="lang">Dockerfile</span>
  <span class="percent">0.15%</span>
</li>
<li style="animation-delay: 3000ms;">
  <svg 
      xmlns="http://www.w3.org/2000/svg" 
      class="octicon"
      style="fill: #012456;" 
      viewBox="0 0 16 16" 
      version="1.1" 
      width="16" 
      height="16"
  ><path 
      fill-rule="evenodd" 
      d="M8 4a4 4 0 100 8 4 4 0 000-8z"
  ></path></svg>
  <span class="lang">PowerShell</span>
  <span class="percent">0.05%</span>
</li>
<li style="animation-delay: 3150ms;">
  <svg 
      xmlns="http://www.w3.org/2000/svg" 
      class="octicon"
      style="fill: #fcb32c;" 
      viewBox="0 0 16 16" 
      version="1.1" 
      width="16" 
      height="16"
  ><path 
      fill-rule="evenodd" 
      d="M8 4a4 4 0 100 8 4 4 0 000-8z"
  ></path></svg>
  <span class="lang">MDX</span>
  <span class="percent">0.02%</span>
</li>
<li style="animation-delay: 3300ms;">
  <svg 
      xmlns="http://www.w3.org/2000/svg" 
      class="octicon"
      style="fill: #00A2FF;" 
      viewBox="0 0 16 16" 
      version="1.1" 
      width="16" 
      height="16"
  ><path 
      fill-rule="evenodd" 
      d="M8 4a4 4 0 100 8 4 4 0 000-8z"
  ></path></svg>
  <span class="lang">Luau</span>
  <span class="percent">0.00%</span>
</li>
<li style="animation-delay: 3450ms;">
  <svg 
      xmlns="http://www.w3.org/2000/svg" 
      class="octicon"
      style="fill: #701516;" 
      viewBox="0 0 16 16" 
      version="1.1" 
      width="16" 
      height="16"
  ><path 
      fill-rule="evenodd" 
      d="M8 4a4 4 0 100 8 4 4 0 000-8z"
  ></path></svg>
  <span class="lang">Ruby</span>
  <span class="percent">0.00%</span>
</li>
<li style="animation-delay: 3600ms;">
  <svg 
      xmlns="http://www.w3.org/2000/svg" 
      class="octicon"
      style="fill: #5686a5;" 
      viewBox="0 0 16 16" 
      version="1.1" 
      width="16" 
      height="16"
  ><path 
      fill-rule="evenodd" 
      d="M8 4a4 4 0 100 8 4 4 0 000-8z"
  ></path></svg>
  <span class="lang">GLSL</span>
  <span class="percent">0.00%</span>
</li>


</ul>

</div>
</foreignObject>
</g>
</g>
</svg>
